<?xml version="1.0" standalone="no"?>
<!DOCTYPE svg PUBLIC "-//W3C//DTD SVG 20010904//EN"
 "http://www.w3.org/TR/2001/REC-SVG-20010904/DTD/svg10.dtd">
<svg version="1.0" xmlns="http://www.w3.org/2000/svg"
 width="512.000000pt" height="512.000000pt" viewBox="0 0 512.000000 512.000000"
 preserveAspectRatio="xMidYMid meet">
<metadata>
Created by potrace 1.14, written by Peter Selinger 2001-2017
</metadata>
<g transform="translate(0.000000,512.000000) scale(0.100000,-0.100000)"
fill="#000000" stroke="none">
<path d="M395 5106 c-193 -48 -343 -201 -384 -394 -16 -76 -16 -4228 0 -4304
42 -197 200 -355 397 -397 76 -16 4228 -16 4304 0 197 42 355 200 397 397 16
76 16 4228 0 4304 -42 197 -200 355 -397 397 -80 17 -4248 14 -4317 -3z m3060
-1250 c107 -17 278 -63 382 -102 179 -67 290 -150 340 -253 25 -50 28 -66 26
-156 -2 -208 -99 -390 -298 -565 -329 -287 -1025 -497 -1754 -528 l-156 -7 -8
-485 c-7 -360 -12 -488 -21 -498 -20 -20 -110 -30 -228 -24 l-109 5 4 556 c4
574 27 1064 62 1316 75 546 281 702 990 755 187 13 651 5 770 -14z m-2219
-137 c18 -21 19 -55 19 -1230 0 -1371 9 -1239 -88 -1247 -44 -3 -66 1 -115 23
-34 15 -68 35 -77 45 -40 44 -47 135 -52 615 -7 644 29 1721 59 1751 26 26
132 63 184 64 39 0 55 -5 70 -21z"/>
<path d="M2835 3619 c-105 -10 -307 -59 -411 -99 -211 -81 -338 -196 -359
-325 -4 -22 -21 -107 -37 -190 -40 -191 -44 -338 -12 -400 31 -61 86 -85 194
-85 409 1 947 101 1236 230 239 108 389 276 402 450 4 58 1 76 -21 124 -104
226 -495 342 -992 295z"/>
</g>
</svg>
